# This file uses centimeters as units for non-parametric coordinates.

mtllib room.mtl
g default
v 3.861746 0.202611 3.178779
v 3.861746 0.202611 2.037774
v 3.861746 2.395403 3.178779
v 3.861746 2.395403 2.037774
v 0.034553 2.395403 3.178779
v 0.034553 2.395403 2.037774
v 0.034553 0.202611 3.178779
v 0.034553 0.202611 2.037774
v -4.065798 4.537560 3.430221
v -2.924793 4.537560 3.430221
v -4.065798 4.844859 3.430221
v -2.924793 4.844859 3.430221
v -4.065798 4.844859 -0.396972
v -2.924793 4.844859 -0.396972
v -4.065798 4.537560 -0.396972
v -2.924793 4.537560 -0.396972
v 1.902652 -0.068186 -3.894130
v 2.155934 -0.068186 -3.894130
v 1.902652 2.426052 -3.894130
v 2.155934 2.426052 -3.894130
v 1.902652 2.426052 -4.141069
v 2.155934 2.426052 -4.141069
v 1.902652 -0.068186 -4.141069
v 2.155934 -0.068186 -4.141069
v -4.239608 -0.184234 -0.095253
v -3.151143 -0.184234 -0.095253
v -4.239608 2.310004 -0.095253
v -3.151143 2.310004 -0.095253
v -4.239608 2.310004 -2.613039
v -3.151143 2.310004 -2.613039
v -4.239608 -0.184234 -2.613039
v -3.151143 -0.184234 -2.613039
v -0.639914 -0.068186 0.868354
v -0.386631 -0.068186 0.868354
v -0.639914 2.426052 0.868354
v -0.386631 2.426052 0.868354
v -0.639914 2.426052 0.621415
v -0.386631 2.426052 0.621415
v -0.639914 -0.068186 0.621415
v -0.386631 -0.068186 0.621415
v -0.639914 -0.068186 -3.894130
v -0.386631 -0.068186 -3.894130
v -0.639914 2.426052 -3.894130
v -0.386631 2.426052 -3.894130
v -0.639914 2.426052 -4.141069
v -0.386631 2.426052 -4.141069
v -0.639914 -0.068186 -4.141069
v -0.386631 -0.068186 -4.141069
v 1.902652 -0.068186 0.868354
v 2.155934 -0.068186 0.868354
v 1.902652 2.426052 0.868354
v 2.155934 2.426052 0.868354
v 1.902652 2.426052 0.621415
v 2.155934 2.426052 0.621415
v 1.902652 -0.068186 0.621415
v 2.155934 -0.068186 0.621415
v -4.065798 4.537560 3.430221
v -2.924793 4.537560 3.430221
v -4.065798 4.844859 3.430221
v -2.924793 4.844859 3.430221
v -4.065798 4.844859 -0.396972
v -2.924793 4.844859 -0.396972
v -4.065798 4.537560 -0.396972
v -2.924793 4.537560 -0.396972
v -4.000000 0.500000 4.105090
v 5.000000 0.500000 4.105090
v -4.000000 9.000000 4.105090
v 5.000000 9.000000 4.105090
v -4.000000 9.000000 3.105090
v 5.000000 9.000000 3.105090
v -4.000000 0.500000 3.105090
v 5.000000 0.500000 3.105090
v -0.933092 2.236792 1.162378
v 2.309764 2.236792 1.162378
v -0.933092 2.337685 1.162378
v 2.309764 2.337685 1.162378
v -0.933092 2.337685 -4.289878
v 2.309764 2.337685 -4.289878
v -0.933092 2.236792 -4.289878
v 2.309764 2.236792 -4.289878
v -5.000000 0.500000 4.105090
v -4.000000 0.500000 4.105090
v -5.000000 9.000000 4.105090
v -4.000000 9.000000 4.105090
v -5.000000 9.000000 -5.894910
v -4.000000 9.000000 -5.894910
v -5.000000 0.500000 -5.894910
v -4.000000 0.500000 -5.894910
v -4.065798 5.916470 3.430221
v -2.924793 5.916470 3.430221
v -4.065798 6.223769 3.430221
v -2.924793 6.223769 3.430221
v -4.065798 6.223769 -0.396972
v -2.924793 6.223769 -0.396972
v -4.065798 5.916470 -0.396972
v -2.924793 5.916470 -0.396972
v -5.000000 -0.500000 4.105090
v 5.000000 -0.500000 4.105090
v -5.000000 0.500000 4.105090
v 5.000000 0.500000 4.105090
v -5.000000 0.500000 -5.894910
v 5.000000 0.500000 -5.894910
v -5.000000 -0.500000 -5.894910
v 5.000000 -0.500000 -5.894910
vt 0.668989 0.815800
vt 0.696848 0.815800
vt 0.696848 0.869340
vt 0.668989 0.869340
vt 0.759272 0.869340
vt 0.731412 0.869340
vt 0.731412 0.815800
vt 0.759272 0.815800
vt 0.977202 0.659322
vt 0.977202 0.565875
vt 0.984706 0.565875
vt 0.984706 0.659322
vt 0.936038 0.784284
vt 0.936038 0.690837
vt 0.943541 0.690837
vt 0.943541 0.784284
vt 0.024065 0.780514
vt 0.030095 0.780514
vt 0.030095 0.841415
vt 0.024065 0.841415
vt 0.015294 0.872931
vt 0.021324 0.872931
vt 0.021324 0.933831
vt 0.015294 0.933831
vt 0.238009 0.841990
vt 0.238009 0.780514
vt 0.298910 0.780514
vt 0.298910 0.841990
vt 0.143447 0.841990
vt 0.143447 0.780514
vt 0.204348 0.780514
vt 0.204348 0.841990
vt 0.259332 0.873506
vt 0.265362 0.873506
vt 0.265362 0.934406
vt 0.259332 0.934406
vt 0.300298 0.873506
vt 0.306328 0.873506
vt 0.306328 0.934406
vt 0.300298 0.934406
vt 0.423195 0.816794
vt 0.429224 0.816794
vt 0.429224 0.877695
vt 0.423195 0.877695
vt 0.464161 0.816794
vt 0.470190 0.816794
vt 0.470190 0.877695
vt 0.464161 0.877695
vt 0.587057 0.815800
vt 0.593087 0.815800
vt 0.593087 0.876700
vt 0.587057 0.876700
vt 0.628023 0.815800
vt 0.634053 0.815800
vt 0.634053 0.876700
vt 0.628023 0.876700
vt 0.771832 0.784284
vt 0.771832 0.690837
vt 0.779335 0.690837
vt 0.779335 0.784284
vt 0.730667 0.784284
vt 0.730667 0.690837
vt 0.738170 0.690837
vt 0.738170 0.784284
vt 0.015294 0.541458
vt 0.039711 0.541458
vt 0.039711 0.748999
vt 0.015294 0.748999
vt 0.074012 0.541458
vt 0.098428 0.541458
vt 0.098428 0.748999
vt 0.074012 0.748999
vt 0.475865 0.674584
vt 0.475865 0.541458
vt 0.478329 0.541458
vt 0.478329 0.674584
vt 0.512929 0.674584
vt 0.512929 0.541458
vt 0.515393 0.541458
vt 0.515393 0.674584
vt 0.132534 0.258678
vt 0.132534 0.014513
vt 0.340075 0.014513
vt 0.340075 0.258678
vt 0.374426 0.258678
vt 0.374426 0.014513
vt 0.581967 0.014513
vt 0.581967 0.258678
vt 0.566461 0.759867
vt 0.566461 0.666421
vt 0.573964 0.666421
vt 0.573964 0.759867
vt 0.525297 0.799546
vt 0.525297 0.706099
vt 0.532800 0.706099
vt 0.532800 0.799546
vt 0.682462 0.534359
vt 0.682462 0.290194
vt 0.706879 0.290194
vt 0.706879 0.534359
vt 0.624385 0.534359
vt 0.624385 0.290194
vt 0.648801 0.290194
vt 0.648801 0.534359
vt 0.549993 0.541458
vt 0.577853 0.541458
vt 0.577853 0.634905
vt 0.549993 0.634905
vt 0.640276 0.659322
vt 0.612417 0.659322
vt 0.612417 0.565875
vt 0.640276 0.565875
vt 0.850408 0.565875
vt 0.878267 0.565875
vt 0.878267 0.659322
vt 0.850408 0.659322
vt 0.912832 0.565875
vt 0.940691 0.565875
vt 0.940691 0.659322
vt 0.912832 0.659322
vt 0.937512 0.881359
vt 0.937512 0.875174
vt 0.943541 0.875174
vt 0.943541 0.881359
vt 0.897821 0.881359
vt 0.897821 0.875174
vt 0.903850 0.875174
vt 0.903850 0.881359
vt 0.392809 0.706099
vt 0.419386 0.706099
vt 0.419386 0.767575
vt 0.392809 0.767575
vt 0.332571 0.706099
vt 0.359148 0.706099
vt 0.359148 0.767575
vt 0.332571 0.767575
vt 0.858130 0.881359
vt 0.858130 0.875174
vt 0.864160 0.875174
vt 0.864160 0.881359
vt 0.818439 0.881359
vt 0.818439 0.875174
vt 0.824469 0.875174
vt 0.824469 0.881359
vt 0.778749 0.907040
vt 0.778749 0.900856
vt 0.784778 0.900856
vt 0.784778 0.907040
vt 0.739058 0.907040
vt 0.739058 0.900856
vt 0.745087 0.900856
vt 0.745087 0.907040
vt 0.699367 0.907040
vt 0.699367 0.900856
vt 0.705397 0.900856
vt 0.705397 0.907040
vt 0.659677 0.914400
vt 0.659677 0.908216
vt 0.665706 0.908216
vt 0.665706 0.914400
vt 0.874517 0.690837
vt 0.902376 0.690837
vt 0.902376 0.784284
vt 0.874517 0.784284
vt 0.812996 0.690837
vt 0.840856 0.690837
vt 0.840856 0.784284
vt 0.812996 0.784284
vt 0.325105 0.509943
vt 0.325105 0.290194
vt 0.349521 0.290194
vt 0.349521 0.509943
vt 0.025825 0.509943
vt 0.025825 0.290194
vt 0.050241 0.290194
vt 0.050241 0.509943
vt 0.249579 0.541458
vt 0.328758 0.541458
vt 0.328758 0.674584
vt 0.249579 0.674584
vt 0.362722 0.541458
vt 0.441901 0.541458
vt 0.441901 0.674584
vt 0.362722 0.674584
vt 0.015294 0.014513
vt 0.039711 0.014513
vt 0.039711 0.258678
vt 0.015294 0.258678
vt 0.074012 0.014513
vt 0.098428 0.014513
vt 0.098428 0.258678
vt 0.074012 0.258678
vt 0.669147 0.690837
vt 0.697006 0.690837
vt 0.697006 0.784284
vt 0.669147 0.784284
vt 0.607626 0.690837
vt 0.635485 0.690837
vt 0.635485 0.784284
vt 0.607626 0.784284
vt 0.674841 0.014513
vt 0.919006 0.014513
vt 0.919006 0.258678
vt 0.674841 0.258678
vt 0.740540 0.290194
vt 0.984706 0.290194
vt 0.984706 0.534359
vt 0.740540 0.534359
vt 0.728381 0.565875
vt 0.728381 0.659322
vt 0.674841 0.659322
vt 0.674841 0.565875
vt 0.762624 0.659322
vt 0.762624 0.565875
vt 0.816165 0.565875
vt 0.816165 0.659322
vt 0.793836 0.843659
vt 0.793836 0.815800
vt 0.801339 0.815800
vt 0.801339 0.843659
vt 0.836753 0.843659
vt 0.836753 0.815800
vt 0.844256 0.815800
vt 0.844256 0.843659
vt 0.103602 0.780514
vt 0.109786 0.780514
vt 0.109786 0.841415
vt 0.103602 0.841415
vt 0.063756 0.780514
vt 0.069940 0.780514
vt 0.069940 0.841415
vt 0.063756 0.841415
vt 0.056455 0.872931
vt 0.083032 0.872931
vt 0.083032 0.933831
vt 0.056455 0.933831
vt 0.116928 0.873506
vt 0.143505 0.873506
vt 0.143505 0.934406
vt 0.116928 0.934406
vt 0.177401 0.873506
vt 0.183586 0.873506
vt 0.183586 0.934406
vt 0.177401 0.934406
vt 0.218367 0.873506
vt 0.224551 0.873506
vt 0.224551 0.934406
vt 0.218367 0.934406
vt 0.341264 0.799090
vt 0.347448 0.799090
vt 0.347448 0.859991
vt 0.341264 0.859991
vt 0.382229 0.799090
vt 0.388414 0.799090
vt 0.388414 0.859991
vt 0.382229 0.859991
vt 0.505126 0.831061
vt 0.511311 0.831061
vt 0.511311 0.891962
vt 0.505126 0.891962
vt 0.546092 0.831061
vt 0.552276 0.831061
vt 0.552276 0.891962
vt 0.546092 0.891962
vt 0.879669 0.843659
vt 0.879669 0.815800
vt 0.887172 0.815800
vt 0.887172 0.843659
vt 0.922585 0.843659
vt 0.922585 0.815800
vt 0.930089 0.815800
vt 0.930089 0.843659
vt 0.383183 0.509943
vt 0.383183 0.290194
vt 0.590723 0.290194
vt 0.590723 0.509943
vt 0.083903 0.509943
vt 0.083903 0.290194
vt 0.291443 0.290194
vt 0.291443 0.509943
vt 0.489172 0.785278
vt 0.489172 0.706099
vt 0.491635 0.706099
vt 0.491635 0.785278
vt 0.453047 0.785278
vt 0.453047 0.706099
vt 0.455510 0.706099
vt 0.455510 0.785278
vt 0.132534 0.541458
vt 0.156951 0.541458
vt 0.156951 0.748999
vt 0.132534 0.748999
vt 0.191056 0.541458
vt 0.215473 0.541458
vt 0.215473 0.748999
vt 0.191056 0.748999
vt 0.965502 0.843659
vt 0.965502 0.815800
vt 0.973005 0.815800
vt 0.973005 0.843659
vt 0.977202 0.903034
vt 0.977202 0.875174
vt 0.984706 0.875174
vt 0.984706 0.903034
vt 0.616319 0.258678
vt 0.616319 0.014513
vt 0.640735 0.014513
vt 0.640735 0.258678
vt 0.953797 0.258678
vt 0.953797 0.014513
vt 0.978214 0.014513
vt 0.978214 0.258678
vn 1.000000 0.000000 0.000000
vn 1.000000 0.000000 0.000000
vn 1.000000 0.000000 0.000000
vn 1.000000 0.000000 0.000000
vn 0.000000 1.000000 0.000000
vn 0.000000 1.000000 0.000000
vn 0.000000 1.000000 0.000000
vn 0.000000 1.000000 0.000000
vn -1.000000 0.000000 0.000000
vn -1.000000 0.000000 0.000000
vn -1.000000 0.000000 0.000000
vn -1.000000 0.000000 0.000000
vn 0.000000 -1.000000 0.000000
vn 0.000000 -1.000000 0.000000
vn 0.000000 -1.000000 0.000000
vn 0.000000 -1.000000 0.000000
vn 0.000000 0.000000 -1.000000
vn 0.000000 0.000000 -1.000000
vn 0.000000 0.000000 -1.000000
vn 0.000000 0.000000 -1.000000
vn 0.000000 0.000000 1.000000
vn 0.000000 0.000000 1.000000
vn 0.000000 0.000000 1.000000
vn 0.000000 0.000000 1.000000
vn 0.000000 0.000000 1.000000
vn 0.000000 0.000000 1.000000
vn 0.000000 0.000000 1.000000
vn 0.000000 0.000000 1.000000
vn 0.000000 1.000000 0.000000
vn 0.000000 1.000000 0.000000
vn 0.000000 1.000000 0.000000
vn 0.000000 1.000000 0.000000
vn 0.000000 0.000000 -1.000000
vn 0.000000 0.000000 -1.000000
vn 0.000000 0.000000 -1.000000
vn 0.000000 0.000000 -1.000000
vn 0.000000 -1.000000 0.000000
vn 0.000000 -1.000000 0.000000
vn 0.000000 -1.000000 0.000000
vn 0.000000 -1.000000 0.000000
vn 1.000000 0.000000 0.000000
vn 1.000000 0.000000 0.000000
vn 1.000000 0.000000 0.000000
vn 1.000000 0.000000 0.000000
vn -1.000000 0.000000 0.000000
vn -1.000000 0.000000 0.000000
vn -1.000000 0.000000 0.000000
vn -1.000000 0.000000 0.000000
vn 0.000000 0.000000 1.000000
vn 0.000000 0.000000 1.000000
vn 0.000000 0.000000 1.000000
vn 0.000000 0.000000 1.000000
vn 0.000000 1.000000 0.000000
vn 0.000000 1.000000 0.000000
vn 0.000000 1.000000 0.000000
vn 0.000000 1.000000 0.000000
vn 0.000000 0.000000 -1.000000
vn 0.000000 0.000000 -1.000000
vn 0.000000 0.000000 -1.000000
vn 0.000000 0.000000 -1.000000
vn 0.000000 -1.000000 0.000000
vn 0.000000 -1.000000 0.000000
vn 0.000000 -1.000000 0.000000
vn 0.000000 -1.000000 0.000000
vn 1.000000 0.000000 0.000000
vn 1.000000 0.000000 0.000000
vn 1.000000 0.000000 0.000000
vn 1.000000 0.000000 0.000000
vn -1.000000 0.000000 0.000000
vn -1.000000 0.000000 0.000000
vn -1.000000 0.000000 0.000000
vn -1.000000 0.000000 0.000000
vn 0.000000 0.000000 1.000000
vn 0.000000 0.000000 1.000000
vn 0.000000 0.000000 1.000000
vn 0.000000 0.000000 1.000000
vn 0.000000 1.000000 0.000000
vn 0.000000 1.000000 0.000000
vn 0.000000 1.000000 0.000000
vn 0.000000 1.000000 0.000000
vn 0.000000 0.000000 -1.000000
vn 0.000000 0.000000 -1.000000
vn 0.000000 0.000000 -1.000000
vn 0.000000 0.000000 -1.000000
vn 0.000000 -1.000000 0.000000
vn 0.000000 -1.000000 0.000000
vn 0.000000 -1.000000 0.000000
vn 0.000000 -1.000000 0.000000
vn 1.000000 0.000000 0.000000
vn 1.000000 0.000000 0.000000
vn 1.000000 0.000000 0.000000
vn 1.000000 0.000000 0.000000
vn -1.000000 0.000000 0.000000
vn -1.000000 0.000000 0.000000
vn -1.000000 0.000000 0.000000
vn -1.000000 0.000000 0.000000
vn 0.000000 0.000000 1.000000
vn 0.000000 0.000000 1.000000
vn 0.000000 0.000000 1.000000
vn 0.000000 0.000000 1.000000
vn 0.000000 1.000000 0.000000
vn 0.000000 1.000000 0.000000
vn 0.000000 1.000000 0.000000
vn 0.000000 1.000000 0.000000
vn 0.000000 0.000000 -1.000000
vn 0.000000 0.000000 -1.000000
vn 0.000000 0.000000 -1.000000
vn 0.000000 0.000000 -1.000000
vn 0.000000 -1.000000 0.000000
vn 0.000000 -1.000000 0.000000
vn 0.000000 -1.000000 0.000000
vn 0.000000 -1.000000 0.000000
vn 1.000000 0.000000 0.000000
vn 1.000000 0.000000 0.000000
vn 1.000000 0.000000 0.000000
vn 1.000000 0.000000 0.000000
vn -1.000000 0.000000 0.000000
vn -1.000000 0.000000 0.000000
vn -1.000000 0.000000 0.000000
vn -1.000000 0.000000 0.000000
vn 0.000000 0.000000 1.000000
vn 0.000000 0.000000 1.000000
vn 0.000000 0.000000 1.000000
vn 0.000000 0.000000 1.000000
vn 0.000000 1.000000 0.000000
vn 0.000000 1.000000 0.000000
vn 0.000000 1.000000 0.000000
vn 0.000000 1.000000 0.000000
vn 0.000000 0.000000 -1.000000
vn 0.000000 0.000000 -1.000000
vn 0.000000 0.000000 -1.000000
vn 0.000000 0.000000 -1.000000
vn 0.000000 -1.000000 0.000000
vn 0.000000 -1.000000 0.000000
vn 0.000000 -1.000000 0.000000
vn 0.000000 -1.000000 0.000000
vn 1.000000 0.000000 0.000000
vn 1.000000 0.000000 0.000000
vn 1.000000 0.000000 0.000000
vn 1.000000 0.000000 0.000000
vn -1.000000 0.000000 0.000000
vn -1.000000 0.000000 0.000000
vn -1.000000 0.000000 0.000000
vn -1.000000 0.000000 0.000000
vn 0.000000 0.000000 1.000000
vn 0.000000 0.000000 1.000000
vn 0.000000 0.000000 1.000000
vn 0.000000 0.000000 1.000000
vn 0.000000 1.000000 0.000000
vn 0.000000 1.000000 0.000000
vn 0.000000 1.000000 0.000000
vn 0.000000 1.000000 0.000000
vn 0.000000 0.000000 -1.000000
vn 0.000000 0.000000 -1.000000
vn 0.000000 0.000000 -1.000000
vn 0.000000 0.000000 -1.000000
vn 0.000000 -1.000000 0.000000
vn 0.000000 -1.000000 0.000000
vn 0.000000 -1.000000 0.000000
vn 0.000000 -1.000000 0.000000
vn 1.000000 0.000000 0.000000
vn 1.000000 0.000000 0.000000
vn 1.000000 0.000000 0.000000
vn 1.000000 0.000000 0.000000
vn -1.000000 0.000000 0.000000
vn -1.000000 0.000000 0.000000
vn -1.000000 0.000000 0.000000
vn -1.000000 0.000000 0.000000
vn 0.000000 0.000000 1.000000
vn 0.000000 0.000000 1.000000
vn 0.000000 0.000000 1.000000
vn 0.000000 0.000000 1.000000
vn 0.000000 1.000000 0.000000
vn 0.000000 1.000000 0.000000
vn 0.000000 1.000000 0.000000
vn 0.000000 1.000000 0.000000
vn 0.000000 0.000000 -1.000000
vn 0.000000 0.000000 -1.000000
vn 0.000000 0.000000 -1.000000
vn 0.000000 0.000000 -1.000000
vn 0.000000 -1.000000 0.000000
vn 0.000000 -1.000000 0.000000
vn 0.000000 -1.000000 0.000000
vn 0.000000 -1.000000 0.000000
vn 1.000000 0.000000 0.000000
vn 1.000000 0.000000 0.000000
vn 1.000000 0.000000 0.000000
vn 1.000000 0.000000 0.000000
vn -1.000000 0.000000 0.000000
vn -1.000000 0.000000 0.000000
vn -1.000000 0.000000 0.000000
vn -1.000000 0.000000 0.000000
vn 0.000000 0.000000 1.000000
vn 0.000000 0.000000 1.000000
vn 0.000000 0.000000 1.000000
vn 0.000000 0.000000 1.000000
vn 0.000000 1.000000 0.000000
vn 0.000000 1.000000 0.000000
vn 0.000000 1.000000 0.000000
vn 0.000000 1.000000 0.000000
vn 0.000000 0.000000 -1.000000
vn 0.000000 0.000000 -1.000000
vn 0.000000 0.000000 -1.000000
vn 0.000000 0.000000 -1.000000
vn 0.000000 -1.000000 0.000000
vn 0.000000 -1.000000 0.000000
vn 0.000000 -1.000000 0.000000
vn 0.000000 -1.000000 0.000000
vn 1.000000 0.000000 0.000000
vn 1.000000 0.000000 0.000000
vn 1.000000 0.000000 0.000000
vn 1.000000 0.000000 0.000000
vn -1.000000 0.000000 0.000000
vn -1.000000 0.000000 0.000000
vn -1.000000 0.000000 0.000000
vn -1.000000 0.000000 0.000000
vn 0.000000 0.000000 1.000000
vn 0.000000 0.000000 1.000000
vn 0.000000 0.000000 1.000000
vn 0.000000 0.000000 1.000000
vn 0.000000 1.000000 0.000000
vn 0.000000 1.000000 0.000000
vn 0.000000 1.000000 0.000000
vn 0.000000 1.000000 0.000000
vn 0.000000 0.000000 -1.000000
vn 0.000000 0.000000 -1.000000
vn 0.000000 0.000000 -1.000000
vn 0.000000 0.000000 -1.000000
vn 0.000000 -1.000000 0.000000
vn 0.000000 -1.000000 0.000000
vn 0.000000 -1.000000 0.000000
vn 0.000000 -1.000000 0.000000
vn 1.000000 0.000000 0.000000
vn 1.000000 0.000000 0.000000
vn 1.000000 0.000000 0.000000
vn 1.000000 0.000000 0.000000
vn -1.000000 0.000000 0.000000
vn -1.000000 0.000000 0.000000
vn -1.000000 0.000000 0.000000
vn -1.000000 0.000000 0.000000
vn 0.000000 0.000000 1.000000
vn 0.000000 0.000000 1.000000
vn 0.000000 0.000000 1.000000
vn 0.000000 0.000000 1.000000
vn 0.000000 1.000000 0.000000
vn 0.000000 1.000000 0.000000
vn 0.000000 1.000000 0.000000
vn 0.000000 1.000000 0.000000
vn 0.000000 0.000000 -1.000000
vn 0.000000 0.000000 -1.000000
vn 0.000000 0.000000 -1.000000
vn 0.000000 0.000000 -1.000000
vn 0.000000 -1.000000 0.000000
vn 0.000000 -1.000000 0.000000
vn 0.000000 -1.000000 0.000000
vn 0.000000 -1.000000 0.000000
vn 1.000000 0.000000 0.000000
vn 1.000000 0.000000 0.000000
vn 1.000000 0.000000 0.000000
vn 1.000000 0.000000 0.000000
vn -1.000000 0.000000 0.000000
vn -1.000000 0.000000 0.000000
vn -1.000000 0.000000 0.000000
vn -1.000000 0.000000 0.000000
vn 0.000000 0.000000 1.000000
vn 0.000000 0.000000 1.000000
vn 0.000000 0.000000 1.000000
vn 0.000000 0.000000 1.000000
vn 0.000000 1.000000 0.000000
vn 0.000000 1.000000 0.000000
vn 0.000000 1.000000 0.000000
vn 0.000000 1.000000 0.000000
vn 0.000000 0.000000 -1.000000
vn 0.000000 0.000000 -1.000000
vn 0.000000 0.000000 -1.000000
vn 0.000000 0.000000 -1.000000
vn 0.000000 -1.000000 0.000000
vn 0.000000 -1.000000 0.000000
vn 0.000000 -1.000000 0.000000
vn 0.000000 -1.000000 0.000000
vn 1.000000 0.000000 0.000000
vn 1.000000 0.000000 0.000000
vn 1.000000 0.000000 0.000000
vn 1.000000 0.000000 0.000000
vn -1.000000 0.000000 0.000000
vn -1.000000 0.000000 0.000000
vn -1.000000 0.000000 0.000000
vn -1.000000 0.000000 0.000000
vn 0.000000 0.000000 1.000000
vn 0.000000 0.000000 1.000000
vn 0.000000 0.000000 1.000000
vn 0.000000 0.000000 1.000000
vn 0.000000 1.000000 0.000000
vn 0.000000 1.000000 0.000000
vn 0.000000 1.000000 0.000000
vn 0.000000 1.000000 0.000000
vn 0.000000 0.000000 -1.000000
vn 0.000000 0.000000 -1.000000
vn 0.000000 0.000000 -1.000000
vn 0.000000 0.000000 -1.000000
vn 0.000000 -1.000000 0.000000
vn 0.000000 -1.000000 0.000000
vn 0.000000 -1.000000 0.000000
vn 0.000000 -1.000000 0.000000
vn 1.000000 0.000000 0.000000
vn 1.000000 0.000000 0.000000
vn 1.000000 0.000000 0.000000
vn 1.000000 0.000000 0.000000
vn -1.000000 0.000000 0.000000
vn -1.000000 0.000000 0.000000
vn -1.000000 0.000000 0.000000
vn -1.000000 0.000000 0.000000
s off
g polySurface27
usemtl lambert5SG
f 1/1/1 2/2/2 4/3/3 3/4/4
f 3/105/5 4/106/6 6/107/7 5/108/8
f 5/5/9 6/6/10 8/7/11 7/8/12
f 7/109/13 8/110/14 2/111/15 1/112/16
f 2/209/17 8/210/18 6/211/19 4/212/20
f 7/213/21 1/214/22 3/215/23 5/216/24
f 9/217/25 10/218/26 12/219/27 11/220/28
f 11/113/29 12/114/30 14/115/31 13/116/32
f 13/221/33 14/222/34 16/223/35 15/224/36
f 15/117/37 16/118/38 10/119/39 9/120/40
f 10/9/41 16/10/42 14/11/43 12/12/44
f 15/13/45 9/14/46 11/15/47 13/16/48
f 17/225/49 18/226/50 20/227/51 19/228/52
f 19/121/53 20/122/54 22/123/55 21/124/56
f 21/229/57 22/230/58 24/231/59 23/232/60
f 23/125/61 24/126/62 18/127/63 17/128/64
f 18/17/65 24/18/66 22/19/67 20/20/68
f 23/21/69 17/22/70 19/23/71 21/24/72
f 25/233/73 26/234/74 28/235/75 27/236/76
f 27/129/77 28/130/78 30/131/79 29/132/80
f 29/237/81 30/238/82 32/239/83 31/240/84
f 31/133/85 32/134/86 26/135/87 25/136/88
f 26/25/89 32/26/90 30/27/91 28/28/92
f 31/29/93 25/30/94 27/31/95 29/32/96
f 33/241/97 34/242/98 36/243/99 35/244/100
f 35/137/101 36/138/102 38/139/103 37/140/104
f 37/245/105 38/246/106 40/247/107 39/248/108
f 39/141/109 40/142/110 34/143/111 33/144/112
f 34/33/113 40/34/114 38/35/115 36/36/116
f 39/37/117 33/38/118 35/39/119 37/40/120
f 41/249/121 42/250/122 44/251/123 43/252/124
f 43/145/125 44/146/126 46/147/127 45/148/128
f 45/253/129 46/254/130 48/255/131 47/256/132
f 47/149/133 48/150/134 42/151/135 41/152/136
f 42/41/137 48/42/138 46/43/139 44/44/140
f 47/45/141 41/46/142 43/47/143 45/48/144
f 49/257/145 50/258/146 52/259/147 51/260/148
f 51/153/149 52/154/150 54/155/151 53/156/152
f 53/261/153 54/262/154 56/263/155 55/264/156
f 55/157/157 56/158/158 50/159/159 49/160/160
f 50/49/161 56/50/162 54/51/163 52/52/164
f 55/53/165 49/54/166 51/55/167 53/56/168
f 57/265/169 58/266/170 60/267/171 59/268/172
f 59/161/173 60/162/174 62/163/175 61/164/176
f 61/269/177 62/270/178 64/271/179 63/272/180
f 63/165/181 64/166/182 58/167/183 57/168/184
f 58/57/185 64/58/186 62/59/187 60/60/188
f 63/61/189 57/62/190 59/63/191 61/64/192
f 65/273/193 66/274/194 68/275/195 67/276/196
f 67/169/197 68/170/198 70/171/199 69/172/200
f 69/277/201 70/278/202 72/279/203 71/280/204
f 71/173/205 72/174/206 66/175/207 65/176/208
f 66/65/209 72/66/210 70/67/211 68/68/212
f 71/69/213 65/70/214 67/71/215 69/72/216
f 73/281/217 74/282/218 76/283/219 75/284/220
f 75/177/221 76/178/222 78/179/223 77/180/224
f 77/285/225 78/286/226 80/287/227 79/288/228
f 79/181/229 80/182/230 74/183/231 73/184/232
f 74/73/233 80/74/234 78/75/235 76/76/236
f 79/77/237 73/78/238 75/79/239 77/80/240
f 81/289/241 82/290/242 84/291/243 83/292/244
f 83/185/245 84/186/246 86/187/247 85/188/248
f 85/293/249 86/294/250 88/295/251 87/296/252
f 87/189/253 88/190/254 82/191/255 81/192/256
f 82/81/257 88/82/258 86/83/259 84/84/260
f 87/85/261 81/86/262 83/87/263 85/88/264
f 89/297/265 90/298/266 92/299/267 91/300/268
f 91/193/269 92/194/270 94/195/271 93/196/272
f 93/301/273 94/302/274 96/303/275 95/304/276
f 95/197/277 96/198/278 90/199/279 89/200/280
f 90/89/281 96/90/282 94/91/283 92/92/284
f 95/93/285 89/94/286 91/95/287 93/96/288
f 97/305/289 98/306/290 100/307/291 99/308/292
f 99/201/293 100/202/294 102/203/295 101/204/296
f 101/309/297 102/310/298 104/311/299 103/312/300
f 103/205/301 104/206/302 98/207/303 97/208/304
f 98/97/305 104/98/306 102/99/307 100/100/308
f 103/101/309 97/102/310 99/103/311 101/104/312
