# This file uses centimeters as units for non-parametric coordinates.

mtllib room.mtl
g default
v -3.500000 0.500000 1.500000
v -2.500000 0.500000 1.500000
v -3.500000 3.000000 1.500000
v -2.500000 3.000000 1.500000
v -3.500000 3.000000 -2.000000
v -2.500000 3.000000 -2.000000
v -3.500000 0.500000 -2.000000
v -2.500000 0.500000 -2.000000
v -4.000000 0.500000 5.000000
v 5.000000 0.500000 5.000000
v -4.000000 9.000000 5.000000
v 5.000000 9.000000 5.000000
v -4.000000 9.000000 4.000000
v 5.000000 9.000000 4.000000
v -4.000000 0.500000 4.000000
v 5.000000 0.500000 4.000000
v -5.000000 0.500000 5.000000
v -4.000000 0.500000 5.000000
v -5.000000 9.000000 5.000000
v -4.000000 9.000000 5.000000
v -5.000000 9.000000 -5.000000
v -4.000000 9.000000 -5.000000
v -5.000000 0.500000 -5.000000
v -4.000000 0.500000 -5.000000
v -5.000000 -0.500000 5.000000
v 5.000000 -0.500000 5.000000
v -5.000000 0.500000 5.000000
v 5.000000 0.500000 5.000000
v -5.000000 0.500000 -5.000000
v 5.000000 0.500000 -5.000000
v -5.000000 -0.500000 -5.000000
v 5.000000 -0.500000 -5.000000
vt 0.000000 0.824561
vt 0.000000 0.701754
vt 0.087719 0.701754
vt 0.087719 0.824561
vt 0.090854 0.824561
vt 0.090854 0.701754
vt 0.178574 0.701754
vt 0.178574 0.824561
vt 0.252812 0.701754
vt 0.287900 0.701754
vt 0.287900 0.824561
vt 0.252812 0.824561
vt 0.217260 0.701754
vt 0.252348 0.701754
vt 0.252348 0.824561
vt 0.217260 0.824561
vt 0.288364 0.701754
vt 0.323451 0.701754
vt 0.323451 0.789474
vt 0.288364 0.789474
vt 0.323915 0.701754
vt 0.359003 0.701754
vt 0.359003 0.789474
vt 0.323915 0.789474
vt 0.651781 0.315789
vt 0.651781 0.000000
vt 0.950026 0.000000
vt 0.950026 0.315789
vt 0.865091 0.947368
vt 0.865091 0.631579
vt 0.900179 0.631579
vt 0.900179 0.947368
vt 0.651781 0.631579
vt 0.651781 0.315789
vt 0.950026 0.315789
vt 0.950026 0.631579
vt 0.900643 0.947368
vt 0.900643 0.631579
vt 0.935730 0.631579
vt 0.935730 0.947368
vt 0.936194 0.631579
vt 0.971282 0.631579
vt 0.971282 0.929824
vt 0.936194 0.929824
vt 0.951995 0.000000
vt 0.987083 0.000000
vt 0.987083 0.298246
vt 0.951995 0.298246
vt 0.181709 0.701754
vt 0.216796 0.701754
vt 0.216796 1.000000
vt 0.181709 1.000000
vt 0.829539 0.631579
vt 0.864627 0.631579
vt 0.864627 0.982456
vt 0.829539 0.982456
vt 0.951995 0.298246
vt 0.987083 0.298246
vt 0.987083 0.596491
vt 0.951995 0.596491
vt 0.722884 0.631579
vt 0.757972 0.631579
vt 0.757972 0.982456
vt 0.722884 0.982456
vt 0.351567 0.701754
vt 0.351567 0.350877
vt 0.649812 0.350877
vt 0.649812 0.701754
vt 0.351567 0.350877
vt 0.351567 0.000000
vt 0.649812 0.000000
vt 0.649812 0.350877
vt 0.758436 0.982456
vt 0.758436 0.631579
vt 0.793524 0.631579
vt 0.793524 0.982456
vt 0.000000 0.000000
vt 0.350877 0.000000
vt 0.350877 0.350877
vt 0.000000 0.350877
vt 0.651781 0.982456
vt 0.651781 0.631579
vt 0.686869 0.631579
vt 0.686869 0.982456
vt 0.000000 0.350877
vt 0.350877 0.350877
vt 0.350877 0.701754
vt 0.000000 0.701754
vt 0.687333 0.982456
vt 0.687333 0.631579
vt 0.722420 0.631579
vt 0.722420 0.982456
vt 0.793988 0.982456
vt 0.793988 0.631579
vt 0.829075 0.631579
vt 0.829075 0.982456
vn 0.000000 0.000000 1.000000
vn 0.000000 0.000000 1.000000
vn 0.000000 0.000000 1.000000
vn 0.000000 0.000000 1.000000
vn 0.000000 1.000000 0.000000
vn 0.000000 1.000000 0.000000
vn 0.000000 1.000000 0.000000
vn 0.000000 1.000000 0.000000
vn 0.000000 0.000000 -1.000000
vn 0.000000 0.000000 -1.000000
vn 0.000000 0.000000 -1.000000
vn 0.000000 0.000000 -1.000000
vn 0.000000 -1.000000 0.000000
vn 0.000000 -1.000000 0.000000
vn 0.000000 -1.000000 0.000000
vn 0.000000 -1.000000 0.000000
vn 1.000000 0.000000 0.000000
vn 1.000000 0.000000 0.000000
vn 1.000000 0.000000 0.000000
vn 1.000000 0.000000 0.000000
vn -1.000000 0.000000 0.000000
vn -1.000000 0.000000 0.000000
vn -1.000000 0.000000 0.000000
vn -1.000000 0.000000 0.000000
vn 0.000000 0.000000 1.000000
vn 0.000000 0.000000 1.000000
vn 0.000000 0.000000 1.000000
vn 0.000000 0.000000 1.000000
vn 0.000000 1.000000 0.000000
vn 0.000000 1.000000 0.000000
vn 0.000000 1.000000 0.000000
vn 0.000000 1.000000 0.000000
vn 0.000000 0.000000 -1.000000
vn 0.000000 0.000000 -1.000000
vn 0.000000 0.000000 -1.000000
vn 0.000000 0.000000 -1.000000
vn 0.000000 -1.000000 0.000000
vn 0.000000 -1.000000 0.000000
vn 0.000000 -1.000000 0.000000
vn 0.000000 -1.000000 0.000000
vn 1.000000 0.000000 0.000000
vn 1.000000 0.000000 0.000000
vn 1.000000 0.000000 0.000000
vn 1.000000 0.000000 0.000000
vn -1.000000 0.000000 0.000000
vn -1.000000 0.000000 0.000000
vn -1.000000 0.000000 0.000000
vn -1.000000 0.000000 0.000000
vn 0.000000 0.000000 1.000000
vn 0.000000 0.000000 1.000000
vn 0.000000 0.000000 1.000000
vn 0.000000 0.000000 1.000000
vn 0.000000 1.000000 0.000000
vn 0.000000 1.000000 0.000000
vn 0.000000 1.000000 0.000000
vn 0.000000 1.000000 0.000000
vn 0.000000 0.000000 -1.000000
vn 0.000000 0.000000 -1.000000
vn 0.000000 0.000000 -1.000000
vn 0.000000 0.000000 -1.000000
vn 0.000000 -1.000000 0.000000
vn 0.000000 -1.000000 0.000000
vn 0.000000 -1.000000 0.000000
vn 0.000000 -1.000000 0.000000
vn 1.000000 0.000000 0.000000
vn 1.000000 0.000000 0.000000
vn 1.000000 0.000000 0.000000
vn 1.000000 0.000000 0.000000
vn -1.000000 0.000000 0.000000
vn -1.000000 0.000000 0.000000
vn -1.000000 0.000000 0.000000
vn -1.000000 0.000000 0.000000
vn 0.000000 0.000000 1.000000
vn 0.000000 0.000000 1.000000
vn 0.000000 0.000000 1.000000
vn 0.000000 0.000000 1.000000
vn 0.000000 1.000000 0.000000
vn 0.000000 1.000000 0.000000
vn 0.000000 1.000000 0.000000
vn 0.000000 1.000000 0.000000
vn 0.000000 0.000000 -1.000000
vn 0.000000 0.000000 -1.000000
vn 0.000000 0.000000 -1.000000
vn 0.000000 0.000000 -1.000000
vn 0.000000 -1.000000 0.000000
vn 0.000000 -1.000000 0.000000
vn 0.000000 -1.000000 0.000000
vn 0.000000 -1.000000 0.000000
vn 1.000000 0.000000 0.000000
vn 1.000000 0.000000 0.000000
vn 1.000000 0.000000 0.000000
vn 1.000000 0.000000 0.000000
vn -1.000000 0.000000 0.000000
vn -1.000000 0.000000 0.000000
vn -1.000000 0.000000 0.000000
vn -1.000000 0.000000 0.000000
s off
g pCube9
usemtl initialShadingGroup
f 1/17/1 2/18/2 4/19/3 3/20/4
f 3/9/5 4/10/6 6/11/7 5/12/8
f 5/21/9 6/22/10 8/23/11 7/24/12
f 7/13/13 8/14/14 2/15/15 1/16/16
f 2/1/17 8/2/18 6/3/19 4/4/20
f 7/5/21 1/6/22 3/7/23 5/8/24
f 9/25/25 10/26/26 12/27/27 11/28/28
f 11/29/29 12/30/30 14/31/31 13/32/32
f 13/33/33 14/34/34 16/35/35 15/36/36
f 15/37/37 16/38/38 10/39/39 9/40/40
f 10/41/41 16/42/42 14/43/43 12/44/44
f 15/45/45 9/46/46 11/47/47 13/48/48
f 17/49/49 18/50/50 20/51/51 19/52/52
f 19/53/53 20/54/54 22/55/55 21/56/56
f 21/57/57 22/58/58 24/59/59 23/60/60
f 23/61/61 24/62/62 18/63/63 17/64/64
f 18/65/65 24/66/66 22/67/67 20/68/68
f 23/69/69 17/70/70 19/71/71 21/72/72
f 25/73/73 26/74/74 28/75/75 27/76/76
f 27/77/77 28/78/78 30/79/79 29/80/80
f 29/81/81 30/82/82 32/83/83 31/84/84
f 31/85/85 32/86/86 26/87/87 25/88/88
f 26/89/89 32/90/90 30/91/91 28/92/92
f 31/93/93 25/94/94 27/95/95 29/96/96
